<svg version="1.2" xmlns="http://www.w3.org/2000/svg" viewBox="0 0 372 433" width="372" height="433"><style>.a{fill:#791516}.b{fill:#883130}.c{fill:#862827}</style><path class="a" d="m185 3c3.7 1.2 4 2.2 5.9 5.6q0.8 1.4 1.6 2.9 0.9 1.5 1.7 3.1c0.9 1.6 0.9 1.6 1.8 3.2 5.8 10.4 11.1 20.9 15 32.2q0.6-0.6 1.2-1.3c12.8-13.2 32.2-27.4 51.5-27.8q1.7 0.1 3.3 0.1c-5.5 6.5-5.5 6.5-7.9 9.1-12.4 13.4-21.6 30.5-22.5 49 0.3 7.5 2.4 14.5 7.9 19.8 7.5 5.6 16.9 8.3 25.6 11.3 11.1 3.9 21.7 8 31.9 13.8 1 0.6 1 0.6 2 1.1 10.2 5.8 18.8 12.5 27 20.9q1.1 1.1 2.3 2.3c31.9 33.9 37 88.9 35.8 133-1.1 28.9-10.2 57.2-27.1 80.7q-0.6 0.8-1.2 1.6c-22 30.9-57.6 58.6-95.5 65.9-12.8 1.8-24.4 1.3-37.2-0.4-14.3-1.7-28.8-2.2-43-0.1-35.4 5.1-65.7-5.6-93.9-26.5-11.9-9.1-23.7-18.8-33.2-30.5-0.9-1.1-0.9-1.1-1.8-2.2-29.5-35.1-37.2-79.7-33.4-124.4 3.1-33.7 11.1-68.8 33.2-95.4q0.7-0.9 1.4-1.8c15.6-19.5 41.2-30 64.1-37.9 13.3-4.4 13.3-4.4 25.5-11.3q1 0 2 0c7.1-16.7 3.8-32.8-2.7-49.2-3.5-8.4-7.6-16.2-12.5-23.9-1.8-2.9-1.8-2.9-2.8-5.9 19 3.4 35.8 15.3 48 30q0 1 0 2 1 0 2 0 0.3-1.9 0.7-3.8c1.3-5.8 3.7-10.9 6.2-16.2q0.8-1.5 1.5-3c4.5-9.2 9.8-17.6 15.6-26z"/><path class="b" d="m260 21c2.3 0 4.6 0 7 0-1.6 1.6-3.3 3.3-5 5q-1-2.5-2-5z"/><path class="c" d="m248 27c-3.5 2.4-5.7 3.4-10 3 5.6-4.3 5.6-4.3 10-3z"/></svg>